<?xml version="1.0" encoding="UTF-8" standalone="no"?>
<!DOCTYPE svg PUBLIC "-//W3C//DTD SVG 1.1//EN"
 "http://www.w3.org/Graphics/SVG/1.1/DTD/svg11.dtd">
<!-- Generated by graphviz version 14.1.1 (20251213.1925)
 -->
<!-- Title: InheritanceTree Pages: 1 -->
<svg width="438pt" height="429pt"
 viewBox="0.00 0.00 438.00 429.00" xmlns="http://www.w3.org/2000/svg" xmlns:xlink="http://www.w3.org/1999/xlink">
<g id="graph0" class="graph" transform="scale(1 1) rotate(0) translate(4 424.5)">
<title>InheritanceTree</title>
<polygon fill="white" stroke="none" points="-4,4 -4,-424.5 434.25,-424.5 434.25,4 -4,4"/>
<text xml:space="preserve" text-anchor="middle" x="215.12" y="-7.2" font-family="Times New Roman,serif" font-size="14.00">simple_validation &#45; Inheritance Hierarchy</text>
<!-- SIMPLE_VALIDATION_QUICK -->
<g id="node1" class="node">
<title>SIMPLE_VALIDATION_QUICK</title>
<path fill="none" stroke="black" d="M190,-60.5C190,-60.5 12,-60.5 12,-60.5 6,-60.5 0,-54.5 0,-48.5 0,-48.5 0,-36.5 0,-36.5 0,-30.5 6,-24.5 12,-24.5 12,-24.5 190,-24.5 190,-24.5 196,-24.5 202,-30.5 202,-36.5 202,-36.5 202,-48.5 202,-48.5 202,-54.5 196,-60.5 190,-60.5"/>
<text xml:space="preserve" text-anchor="middle" x="101" y="-37.45" font-family="Times New Roman,serif" font-size="14.00">SIMPLE_VALIDATION_QUICK</text>
</g>
<!-- SIMPLE_VALIDATOR -->
<g id="node2" class="node">
<title>SIMPLE_VALIDATOR</title>
<path fill="none" stroke="black" d="M162.62,-132.5C162.62,-132.5 39.38,-132.5 39.38,-132.5 33.38,-132.5 27.38,-126.5 27.38,-120.5 27.38,-120.5 27.38,-108.5 27.38,-108.5 27.38,-102.5 33.38,-96.5 39.38,-96.5 39.38,-96.5 162.62,-96.5 162.62,-96.5 168.62,-96.5 174.62,-102.5 174.62,-108.5 174.62,-108.5 174.62,-120.5 174.62,-120.5 174.62,-126.5 168.62,-132.5 162.62,-132.5"/>
<text xml:space="preserve" text-anchor="middle" x="101" y="-109.45" font-family="Times New Roman,serif" font-size="14.00">SIMPLE_VALIDATOR</text>
</g>
<!-- VALIDATION_ERROR -->
<g id="node3" class="node">
<title>VALIDATION_ERROR</title>
<path fill="none" stroke="black" d="M163.38,-204.5C163.38,-204.5 38.62,-204.5 38.62,-204.5 32.62,-204.5 26.62,-198.5 26.62,-192.5 26.62,-192.5 26.62,-180.5 26.62,-180.5 26.62,-174.5 32.62,-168.5 38.62,-168.5 38.62,-168.5 163.38,-168.5 163.38,-168.5 169.38,-168.5 175.38,-174.5 175.38,-180.5 175.38,-180.5 175.38,-192.5 175.38,-192.5 175.38,-198.5 169.38,-204.5 163.38,-204.5"/>
<text xml:space="preserve" text-anchor="middle" x="101" y="-181.45" font-family="Times New Roman,serif" font-size="14.00">VALIDATION_ERROR</text>
</g>
<!-- VALIDATION_RESULT -->
<g id="node4" class="node">
<title>VALIDATION_RESULT</title>
<path fill="none" stroke="black" d="M166,-276.5C166,-276.5 36,-276.5 36,-276.5 30,-276.5 24,-270.5 24,-264.5 24,-264.5 24,-252.5 24,-252.5 24,-246.5 30,-240.5 36,-240.5 36,-240.5 166,-240.5 166,-240.5 172,-240.5 178,-246.5 178,-252.5 178,-252.5 178,-264.5 178,-264.5 178,-270.5 172,-276.5 166,-276.5"/>
<text xml:space="preserve" text-anchor="middle" x="101" y="-253.45" font-family="Times New Roman,serif" font-size="14.00">VALIDATION_RESULT</text>
</g>
<!-- LIB_TESTS -->
<g id="node5" class="node">
<title>LIB_TESTS</title>
<path fill="none" stroke="black" d="M131.12,-348.5C131.12,-348.5 70.88,-348.5 70.88,-348.5 64.88,-348.5 58.88,-342.5 58.88,-336.5 58.88,-336.5 58.88,-324.5 58.88,-324.5 58.88,-318.5 64.88,-312.5 70.88,-312.5 70.88,-312.5 131.12,-312.5 131.12,-312.5 137.12,-312.5 143.12,-318.5 143.12,-324.5 143.12,-324.5 143.12,-336.5 143.12,-336.5 143.12,-342.5 137.12,-348.5 131.12,-348.5"/>
<text xml:space="preserve" text-anchor="middle" x="101" y="-325.45" font-family="Times New Roman,serif" font-size="14.00">LIB_TESTS</text>
</g>
<!-- TEST_SET_BASE -->
<g id="node6" class="node">
<title>TEST_SET_BASE</title>
<path fill="none" stroke="black" d="M418.25,-348.5C418.25,-348.5 322,-348.5 322,-348.5 316,-348.5 310,-342.5 310,-336.5 310,-336.5 310,-324.5 310,-324.5 310,-318.5 316,-312.5 322,-312.5 322,-312.5 418.25,-312.5 418.25,-312.5 424.25,-312.5 430.25,-318.5 430.25,-324.5 430.25,-324.5 430.25,-336.5 430.25,-336.5 430.25,-342.5 424.25,-348.5 418.25,-348.5"/>
<text xml:space="preserve" text-anchor="middle" x="370.12" y="-325.45" font-family="Times New Roman,serif" font-size="14.00">TEST_SET_BASE</text>
</g>
<!-- LIB_TESTS&#45;&gt;TEST_SET_BASE -->
<g id="edge1" class="edge">
<title>LIB_TESTS&#45;&gt;TEST_SET_BASE</title>
<path fill="none" stroke="black" d="M143.35,-330.5C143.35,-330.5 298.02,-330.5 298.02,-330.5"/>
<polygon fill="none" stroke="black" points="298.02,-334 308.02,-330.5 298.02,-327 298.02,-334"/>
</g>
<!-- TEST_APP -->
<g id="node7" class="node">
<title>TEST_APP</title>
<path fill="none" stroke="black" d="M128.88,-420.5C128.88,-420.5 73.12,-420.5 73.12,-420.5 67.12,-420.5 61.12,-414.5 61.12,-408.5 61.12,-408.5 61.12,-396.5 61.12,-396.5 61.12,-390.5 67.12,-384.5 73.12,-384.5 73.12,-384.5 128.88,-384.5 128.88,-384.5 134.88,-384.5 140.88,-390.5 140.88,-396.5 140.88,-396.5 140.88,-408.5 140.88,-408.5 140.88,-414.5 134.88,-420.5 128.88,-420.5"/>
<text xml:space="preserve" text-anchor="middle" x="101" y="-397.45" font-family="Times New Roman,serif" font-size="14.00">TEST_APP</text>
</g>
</g>
</svg>
