<?xml version="1.0" encoding="UTF-8" standalone="no"?>
<!DOCTYPE svg PUBLIC "-//W3C//DTD SVG 1.1//EN"
 "http://www.w3.org/Graphics/SVG/1.1/DTD/svg11.dtd">
<!-- Generated by graphviz version 14.1.1 (20251213.1925)
 -->
<!-- Title: ContractCoverage Pages: 1 -->
<svg width="816pt" height="770pt"
 viewBox="48.00 48.00 768.00 722.00" xmlns="http://www.w3.org/2000/svg" xmlns:xlink="http://www.w3.org/1999/xlink">
<g id="graph0" class="graph" transform="scale(0.824506 0.824506) rotate(0) translate(62.22 871.97)">
<title>ContractCoverage</title>
<polygon fill="white" stroke="none" points="-4,4 -4,-813.75 869.25,-813.75 869.25,4 -4,4"/>
<text xml:space="preserve" text-anchor="middle" x="432.62" y="-796.25" font-family="Times New Roman,serif" font-size="10.00">simple_validation &#45; Contract Coverage</text>
<g id="clust1" class="cluster">
<title>cluster_SIMPLE_VALIDATION_QUICK</title>
<polygon fill="white" stroke="black" points="208.5,-104.5 208.5,-480 572.5,-480 572.5,-104.5 208.5,-104.5"/>
<text xml:space="preserve" text-anchor="middle" x="390.5" y="-462.7" font-family="Times New Roman,serif" font-size="14.00">SIMPLE_VALIDATION_QUICK</text>
</g>
<g id="clust2" class="cluster">
<title>cluster_SIMPLE_VALIDATOR</title>
<polygon fill="white" stroke="black" points="78.5,-598 78.5,-790.5 276.5,-790.5 276.5,-598 78.5,-598"/>
<text xml:space="preserve" text-anchor="middle" x="177.5" y="-773.2" font-family="Times New Roman,serif" font-size="14.00">SIMPLE_VALIDATOR</text>
</g>
<g id="clust3" class="cluster">
<title>cluster_VALIDATION_ERROR</title>
<polygon fill="white" stroke="black" points="623.75,-52 623.75,-346.5 865.25,-346.5 865.25,-52 623.75,-52"/>
<text xml:space="preserve" text-anchor="middle" x="744.5" y="-329.2" font-family="Times New Roman,serif" font-size="14.00">VALIDATION_ERROR</text>
</g>
<g id="clust4" class="cluster">
<title>cluster_VALIDATION_RESULT</title>
<polygon fill="white" stroke="black" points="624.5,-390 624.5,-630.5 858.5,-630.5 858.5,-390 624.5,-390"/>
<text xml:space="preserve" text-anchor="middle" x="741.5" y="-613.2" font-family="Times New Roman,serif" font-size="14.00">VALIDATION_RESULT</text>
</g>
<g id="clust5" class="cluster">
<title>cluster_LIB_TESTS</title>
<polygon fill="white" stroke="black" points="104.38,0 104.38,-60.5 326.63,-60.5 326.63,0 104.38,0"/>
<text xml:space="preserve" text-anchor="middle" x="215.5" y="-43.2" font-family="Times New Roman,serif" font-size="14.00">LIB_TESTS</text>
</g>
<g id="clust6" class="cluster">
<title>cluster_TEST_APP</title>
<polygon fill="white" stroke="black" points="0,-286.5 0,-432 139,-432 139,-286.5 0,-286.5"/>
<text xml:space="preserve" text-anchor="middle" x="69.5" y="-414.7" font-family="Times New Roman,serif" font-size="14.00">TEST_APP</text>
</g>
<g id="clust7" class="cluster">
<title>cluster_legend</title>
<polygon fill="lightyellow" stroke="black" points="338.12,-546.12 338.12,-742.38 558.88,-742.38 558.88,-546.12 338.12,-546.12"/>
<text xml:space="preserve" text-anchor="middle" x="448.5" y="-728.88" font-family="Times New Roman,serif" font-size="10.00">Legend</text>
</g>
<!-- SIMPLE_VALIDATION_QUICK_make -->
<g id="node1" class="node">
<title>SIMPLE_VALIDATION_QUICK_make</title>
<polygon fill="khaki" stroke="black" points="482.5,-455.5 428.5,-455.5 428.5,-419.5 482.5,-419.5 482.5,-455.5"/>
<text xml:space="preserve" text-anchor="middle" x="455.5" y="-433.62" font-family="Times New Roman,serif" font-size="10.00">make</text>
</g>
<!-- SIMPLE_VALIDATION_QUICK_required -->
<g id="node2" class="node">
<title>SIMPLE_VALIDATION_QUICK_required</title>
<polygon fill="khaki" stroke="black" points="277.5,-435.5 223.5,-435.5 223.5,-399.5 277.5,-399.5 277.5,-435.5"/>
<text xml:space="preserve" text-anchor="middle" x="250.5" y="-413.62" font-family="Times New Roman,serif" font-size="10.00">required</text>
</g>
<!-- SIMPLE_VALIDATION_QUICK_not_blank -->
<g id="node3" class="node">
<title>SIMPLE_VALIDATION_QUICK_not_blank</title>
<polygon fill="lightcoral" stroke="black" points="356.5,-400.5 298.5,-400.5 298.5,-364.5 356.5,-364.5 356.5,-400.5"/>
<text xml:space="preserve" text-anchor="middle" x="327.5" y="-378.62" font-family="Times New Roman,serif" font-size="10.00">not_blank</text>
</g>
<!-- SIMPLE_VALIDATION_QUICK_min_length -->
<g id="node4" class="node">
<title>SIMPLE_VALIDATION_QUICK_min_length</title>
<polygon fill="palegreen" stroke="black" points="376.12,-345.5 312.87,-345.5 312.87,-309.5 376.12,-309.5 376.12,-345.5"/>
<text xml:space="preserve" text-anchor="middle" x="344.5" y="-323.62" font-family="Times New Roman,serif" font-size="10.00">min_length</text>
</g>
<!-- SIMPLE_VALIDATION_QUICK_max_length -->
<g id="node5" class="node">
<title>SIMPLE_VALIDATION_QUICK_max_length</title>
<polygon fill="palegreen" stroke="black" points="347.88,-225.5 283.12,-225.5 283.12,-189.5 347.88,-189.5 347.88,-225.5"/>
<text xml:space="preserve" text-anchor="middle" x="315.5" y="-203.62" font-family="Times New Roman,serif" font-size="10.00">max_length</text>
</g>
<!-- SIMPLE_VALIDATION_QUICK_length_ok -->
<g id="node6" class="node">
<title>SIMPLE_VALIDATION_QUICK_length_ok</title>
<polygon fill="palegreen" stroke="black" points="506.5,-390.5 448.5,-390.5 448.5,-354.5 506.5,-354.5 506.5,-390.5"/>
<text xml:space="preserve" text-anchor="middle" x="477.5" y="-368.62" font-family="Times New Roman,serif" font-size="10.00">length_ok</text>
</g>
<!-- SIMPLE_VALIDATION_QUICK_email -->
<g id="node7" class="node">
<title>SIMPLE_VALIDATION_QUICK_email</title>
<polygon fill="khaki" stroke="black" points="537.5,-305.5 483.5,-305.5 483.5,-269.5 537.5,-269.5 537.5,-305.5"/>
<text xml:space="preserve" text-anchor="middle" x="510.5" y="-283.62" font-family="Times New Roman,serif" font-size="10.00">email</text>
</g>
<!-- SIMPLE_VALIDATION_QUICK_url -->
<g id="node8" class="node">
<title>SIMPLE_VALIDATION_QUICK_url</title>
<polygon fill="khaki" stroke="black" points="497.5,-195.5 443.5,-195.5 443.5,-159.5 497.5,-159.5 497.5,-195.5"/>
<text xml:space="preserve" text-anchor="middle" x="470.5" y="-173.62" font-family="Times New Roman,serif" font-size="10.00">url</text>
</g>
<!-- SIMPLE_VALIDATION_QUICK_alpha -->
<g id="node9" class="node">
<title>SIMPLE_VALIDATION_QUICK_alpha</title>
<polygon fill="khaki" stroke="black" points="422.5,-195.5 368.5,-195.5 368.5,-159.5 422.5,-159.5 422.5,-195.5"/>
<text xml:space="preserve" text-anchor="middle" x="395.5" y="-173.62" font-family="Times New Roman,serif" font-size="10.00">alpha</text>
</g>
<!-- SIMPLE_VALIDATION_QUICK_alphanumeric -->
<g id="node10" class="node">
<title>SIMPLE_VALIDATION_QUICK_alphanumeric</title>
<polygon fill="khaki" stroke="black" points="464.25,-335.5 392.75,-335.5 392.75,-299.5 464.25,-299.5 464.25,-335.5"/>
<text xml:space="preserve" text-anchor="middle" x="428.5" y="-313.62" font-family="Times New Roman,serif" font-size="10.00">alphanumeric</text>
</g>
<!-- SIMPLE_VALIDATION_QUICK_numeric -->
<g id="node11" class="node">
<title>SIMPLE_VALIDATION_QUICK_numeric</title>
<polygon fill="khaki" stroke="black" points="297.5,-290.5 243.5,-290.5 243.5,-254.5 297.5,-254.5 297.5,-290.5"/>
<text xml:space="preserve" text-anchor="middle" x="270.5" y="-268.62" font-family="Times New Roman,serif" font-size="10.00">numeric</text>
</g>
<!-- SIMPLE_VALIDATION_QUICK_is_integer -->
<g id="node12" class="node">
<title>SIMPLE_VALIDATION_QUICK_is_integer</title>
<polygon fill="khaki" stroke="black" points="294.75,-345.5 238.25,-345.5 238.25,-309.5 294.75,-309.5 294.75,-345.5"/>
<text xml:space="preserve" text-anchor="middle" x="266.5" y="-323.62" font-family="Times New Roman,serif" font-size="10.00">is_integer</text>
</g>
<!-- SIMPLE_VALIDATION_QUICK_is_number -->
<g id="node13" class="node">
<title>SIMPLE_VALIDATION_QUICK_is_number</title>
<polygon fill="khaki" stroke="black" points="431.87,-400.5 373.12,-400.5 373.12,-364.5 431.87,-364.5 431.87,-400.5"/>
<text xml:space="preserve" text-anchor="middle" x="402.5" y="-378.62" font-family="Times New Roman,serif" font-size="10.00">is_number</text>
</g>
<!-- SIMPLE_VALIDATION_QUICK_in_range -->
<g id="node14" class="node">
<title>SIMPLE_VALIDATION_QUICK_in_range</title>
<polygon fill="palegreen" stroke="black" points="282.5,-170.5 228.5,-170.5 228.5,-134.5 282.5,-134.5 282.5,-170.5"/>
<text xml:space="preserve" text-anchor="middle" x="255.5" y="-148.62" font-family="Times New Roman,serif" font-size="10.00">in_range</text>
</g>
<!-- SIMPLE_VALIDATION_QUICK_positive -->
<g id="node15" class="node">
<title>SIMPLE_VALIDATION_QUICK_positive</title>
<polygon fill="khaki" stroke="black" points="547.5,-250.5 493.5,-250.5 493.5,-214.5 547.5,-214.5 547.5,-250.5"/>
<text xml:space="preserve" text-anchor="middle" x="520.5" y="-228.62" font-family="Times New Roman,serif" font-size="10.00">positive</text>
</g>
<!-- SIMPLE_VALIDATION_QUICK_non_negative -->
<g id="node16" class="node">
<title>SIMPLE_VALIDATION_QUICK_non_negative</title>
<polygon fill="khaki" stroke="black" points="390.62,-280.5 318.38,-280.5 318.38,-244.5 390.62,-244.5 390.62,-280.5"/>
<text xml:space="preserve" text-anchor="middle" x="354.5" y="-258.62" font-family="Times New Roman,serif" font-size="10.00">non_negative</text>
</g>
<!-- SIMPLE_VALIDATION_QUICK_equals -->
<g id="node17" class="node">
<title>SIMPLE_VALIDATION_QUICK_equals</title>
<polygon fill="khaki" stroke="black" points="557.5,-445.5 503.5,-445.5 503.5,-409.5 557.5,-409.5 557.5,-445.5"/>
<text xml:space="preserve" text-anchor="middle" x="530.5" y="-423.62" font-family="Times New Roman,serif" font-size="10.00">equals</text>
</g>
<!-- SIMPLE_VALIDATION_QUICK_one_of -->
<g id="node18" class="node">
<title>SIMPLE_VALIDATION_QUICK_one_of</title>
<polygon fill="palegreen" stroke="black" points="262.5,-235.5 208.5,-235.5 208.5,-199.5 262.5,-199.5 262.5,-235.5"/>
<text xml:space="preserve" text-anchor="middle" x="235.5" y="-213.62" font-family="Times New Roman,serif" font-size="10.00">one_of</text>
</g>
<!-- SIMPLE_VALIDATION_QUICK_validate_all -->
<g id="node19" class="node">
<title>SIMPLE_VALIDATION_QUICK_validate_all</title>
<polygon fill="lightgray" stroke="black" points="472.88,-250.5 408.12,-250.5 408.12,-214.5 472.88,-214.5 472.88,-250.5"/>
<text xml:space="preserve" text-anchor="middle" x="440.5" y="-228.62" font-family="Times New Roman,serif" font-size="10.00">validate_all</text>
</g>
<!-- SIMPLE_VALIDATION_QUICK_l_errors -->
<g id="node20" class="node">
<title>SIMPLE_VALIDATION_QUICK_l_errors</title>
<polygon fill="lightcoral" stroke="black" points="407.5,-455.5 353.5,-455.5 353.5,-419.5 407.5,-419.5 407.5,-455.5"/>
<text xml:space="preserve" text-anchor="middle" x="380.5" y="-433.62" font-family="Times New Roman,serif" font-size="10.00">l_errors</text>
</g>
<!-- SIMPLE_VALIDATION_QUICK_last_error -->
<g id="node21" class="node">
<title>SIMPLE_VALIDATION_QUICK_last_error</title>
<polygon fill="lightgray" stroke="black" points="412.62,-140.5 358.37,-140.5 358.37,-104.5 412.62,-104.5 412.62,-140.5"/>
<text xml:space="preserve" text-anchor="middle" x="385.5" y="-118.62" font-family="Times New Roman,serif" font-size="10.00">last_error</text>
</g>
<!-- SIMPLE_VALIDATION_QUICK_is_valid -->
<g id="node22" class="node">
<title>SIMPLE_VALIDATION_QUICK_is_valid</title>
<polygon fill="khaki" stroke="black" points="487.5,-140.5 433.5,-140.5 433.5,-104.5 487.5,-104.5 487.5,-140.5"/>
<text xml:space="preserve" text-anchor="middle" x="460.5" y="-118.62" font-family="Times New Roman,serif" font-size="10.00">is_valid</text>
</g>
<!-- SIMPLE_VALIDATION_QUICK_validator -->
<g id="node23" class="node">
<title>SIMPLE_VALIDATION_QUICK_validator</title>
<polygon fill="lightgray" stroke="black" points="562.5,-140.5 508.5,-140.5 508.5,-104.5 562.5,-104.5 562.5,-140.5"/>
<text xml:space="preserve" text-anchor="middle" x="535.5" y="-118.62" font-family="Times New Roman,serif" font-size="10.00">validator</text>
</g>
<!-- SIMPLE_VALIDATION_QUICK_logger -->
<g id="node24" class="node">
<title>SIMPLE_VALIDATION_QUICK_logger</title>
<polygon fill="lightgray" stroke="black" points="572.5,-195.5 518.5,-195.5 518.5,-159.5 572.5,-159.5 572.5,-195.5"/>
<text xml:space="preserve" text-anchor="middle" x="545.5" y="-173.62" font-family="Times New Roman,serif" font-size="10.00">logger</text>
</g>
<!-- SIMPLE_VALIDATOR_make -->
<g id="node25" class="node">
<title>SIMPLE_VALIDATOR_make</title>
<polygon fill="khaki" stroke="black" points="132.5,-634 78.5,-634 78.5,-598 132.5,-598 132.5,-634"/>
<text xml:space="preserve" text-anchor="middle" x="105.5" y="-612.12" font-family="Times New Roman,serif" font-size="10.00">make</text>
</g>
<!-- SIMPLE_VALIDATOR_field_name -->
<g id="node26" class="node">
<title>SIMPLE_VALIDATOR_field_name</title>
<polygon fill="lightgray" stroke="black" points="175.38,-766 113.62,-766 113.62,-730 175.38,-730 175.38,-766"/>
<text xml:space="preserve" text-anchor="middle" x="144.5" y="-744.12" font-family="Times New Roman,serif" font-size="10.00">field_name</text>
</g>
<!-- SIMPLE_VALIDATOR_custom_message -->
<g id="node27" class="node">
<title>SIMPLE_VALIDATOR_custom_message</title>
<polygon fill="lightgray" stroke="black" points="198.63,-694 114.38,-694 114.38,-658 198.63,-658 198.63,-694"/>
<text xml:space="preserve" text-anchor="middle" x="156.5" y="-672.12" font-family="Times New Roman,serif" font-size="10.00">custom_message</text>
</g>
<!-- SIMPLE_VALIDATOR_model_rules -->
<g id="node28" class="node">
<title>SIMPLE_VALIDATOR_model_rules</title>
<polygon fill="lightgray" stroke="black" points="264.63,-754 198.38,-754 198.38,-718 264.63,-718 264.63,-754"/>
<text xml:space="preserve" text-anchor="middle" x="231.5" y="-732.12" font-family="Times New Roman,serif" font-size="10.00">model_rules</text>
</g>
<!-- SIMPLE_VALIDATOR_l_result -->
<g id="node29" class="node">
<title>SIMPLE_VALIDATOR_l_result</title>
<polygon fill="khaki" stroke="black" points="276.5,-658 222.5,-658 222.5,-622 276.5,-622 276.5,-658"/>
<text xml:space="preserve" text-anchor="middle" x="249.5" y="-636.12" font-family="Times New Roman,serif" font-size="10.00">l_result</text>
</g>
<!-- VALIDATION_ERROR_make -->
<g id="node30" class="node">
<title>VALIDATION_ERROR_make</title>
<polygon fill="palegreen" stroke="black" points="768.37,-88 714.37,-88 714.37,-52 768.37,-52 768.37,-88"/>
<text xml:space="preserve" text-anchor="middle" x="741.37" y="-66.12" font-family="Times New Roman,serif" font-size="10.00">make</text>
</g>
<!-- VALIDATION_ERROR_code -->
<g id="node31" class="node">
<title>VALIDATION_ERROR_code</title>
<polygon fill="lightgray" stroke="black" points="702.37,-322 648.37,-322 648.37,-286 702.37,-286 702.37,-322"/>
<text xml:space="preserve" text-anchor="middle" x="675.37" y="-300.12" font-family="Times New Roman,serif" font-size="10.00">code</text>
</g>
<!-- VALIDATION_ERROR_message -->
<g id="node32" class="node">
<title>VALIDATION_ERROR_message</title>
<polygon fill="lightgray" stroke="black" points="780.38,-322 726.38,-322 726.38,-286 780.38,-286 780.38,-322"/>
<text xml:space="preserve" text-anchor="middle" x="753.38" y="-300.12" font-family="Times New Roman,serif" font-size="10.00">message</text>
</g>
<!-- VALIDATION_ERROR_field_name -->
<g id="node33" class="node">
<title>VALIDATION_ERROR_field_name</title>
<polygon fill="lightgray" stroke="black" points="865.25,-304 803.5,-304 803.5,-268 865.25,-268 865.25,-304"/>
<text xml:space="preserve" text-anchor="middle" x="834.38" y="-282.12" font-family="Times New Roman,serif" font-size="10.00">field_name</text>
</g>
<!-- VALIDATION_ERROR_constraint -->
<g id="node34" class="node">
<title>VALIDATION_ERROR_constraint</title>
<polygon fill="lightgray" stroke="black" points="848.62,-88 792.12,-88 792.12,-52 848.62,-52 848.62,-88"/>
<text xml:space="preserve" text-anchor="middle" x="820.38" y="-66.12" font-family="Times New Roman,serif" font-size="10.00">constraint</text>
</g>
<!-- VALIDATION_ERROR_actual_value -->
<g id="node35" class="node">
<title>VALIDATION_ERROR_actual_value</title>
<polygon fill="lightgray" stroke="black" points="722.62,-262 654.12,-262 654.12,-226 722.62,-226 722.62,-262"/>
<text xml:space="preserve" text-anchor="middle" x="688.37" y="-240.12" font-family="Times New Roman,serif" font-size="10.00">actual_value</text>
</g>
<!-- VALIDATION_ERROR_set_field_name -->
<g id="node36" class="node">
<title>VALIDATION_ERROR_set_field_name</title>
<polygon fill="khaki" stroke="black" points="822.5,-244 744.25,-244 744.25,-208 822.5,-208 822.5,-244"/>
<text xml:space="preserve" text-anchor="middle" x="783.37" y="-222.12" font-family="Times New Roman,serif" font-size="10.00">set_field_name</text>
</g>
<!-- VALIDATION_ERROR_set_constraint -->
<g id="node37" class="node">
<title>VALIDATION_ERROR_set_constraint</title>
<polygon fill="khaki" stroke="black" points="840.87,-148 767.87,-148 767.87,-112 840.87,-112 840.87,-148"/>
<text xml:space="preserve" text-anchor="middle" x="804.37" y="-126.12" font-family="Times New Roman,serif" font-size="10.00">set_constraint</text>
</g>
<!-- VALIDATION_ERROR_set_actual_value -->
<g id="node38" class="node">
<title>VALIDATION_ERROR_set_actual_value</title>
<polygon fill="khaki" stroke="black" points="744.87,-184 659.87,-184 659.87,-148 744.87,-148 744.87,-184"/>
<text xml:space="preserve" text-anchor="middle" x="702.37" y="-162.12" font-family="Times New Roman,serif" font-size="10.00">set_actual_value</text>
</g>
<!-- VALIDATION_ERROR_full_message -->
<g id="node39" class="node">
<title>VALIDATION_ERROR_full_message</title>
<polygon fill="khaki" stroke="black" points="693,-124 623.75,-124 623.75,-88 693,-88 693,-124"/>
<text xml:space="preserve" text-anchor="middle" x="658.38" y="-102.12" font-family="Times New Roman,serif" font-size="10.00">full_message</text>
</g>
<!-- VALIDATION_RESULT_make_valid -->
<g id="node40" class="node">
<title>VALIDATION_RESULT_make_valid</title>
<polygon fill="khaki" stroke="black" points="724.5,-558 660.5,-558 660.5,-522 724.5,-522 724.5,-558"/>
<text xml:space="preserve" text-anchor="middle" x="692.5" y="-536.12" font-family="Times New Roman,serif" font-size="10.00">make_valid</text>
</g>
<!-- VALIDATION_RESULT_make_invalid -->
<g id="node41" class="node">
<title>VALIDATION_RESULT_make_invalid</title>
<polygon fill="khaki" stroke="black" points="816.62,-546 744.37,-546 744.37,-510 816.62,-510 816.62,-546"/>
<text xml:space="preserve" text-anchor="middle" x="780.5" y="-524.12" font-family="Times New Roman,serif" font-size="10.00">make_invalid</text>
</g>
<!-- VALIDATION_RESULT_is_valid -->
<g id="node42" class="node">
<title>VALIDATION_RESULT_is_valid</title>
<polygon fill="lightgray" stroke="black" points="858.5,-606 804.5,-606 804.5,-570 858.5,-570 858.5,-606"/>
<text xml:space="preserve" text-anchor="middle" x="831.5" y="-584.12" font-family="Times New Roman,serif" font-size="10.00">is_valid</text>
</g>
<!-- VALIDATION_RESULT_has_errors -->
<g id="node43" class="node">
<title>VALIDATION_RESULT_has_errors</title>
<polygon fill="khaki" stroke="black" points="831.12,-444 773.88,-444 773.88,-408 831.12,-408 831.12,-444"/>
<text xml:space="preserve" text-anchor="middle" x="802.5" y="-422.12" font-family="Times New Roman,serif" font-size="10.00">has_errors</text>
</g>
<!-- VALIDATION_RESULT_model_error_codes -->
<g id="node44" class="node">
<title>VALIDATION_RESULT_model_error_codes</title>
<polygon fill="lightgray" stroke="black" points="754.5,-486 660.5,-486 660.5,-450 754.5,-450 754.5,-486"/>
<text xml:space="preserve" text-anchor="middle" x="707.5" y="-464.12" font-family="Times New Roman,serif" font-size="10.00">model_error_codes</text>
</g>
<!-- VALIDATION_RESULT_l_result -->
<g id="node45" class="node">
<title>VALIDATION_RESULT_l_result</title>
<polygon fill="khaki" stroke="black" points="678.5,-426 624.5,-426 624.5,-390 678.5,-390 678.5,-426"/>
<text xml:space="preserve" text-anchor="middle" x="651.5" y="-404.12" font-family="Times New Roman,serif" font-size="10.00">l_result</text>
</g>
<!-- LIB_TESTS_test_make_creates_error_with_code_and_message -->
<g id="node46" class="node">
<title>LIB_TESTS_test_make_creates_error_with_code_and_message</title>
<polygon fill="lightgray" stroke="black" points="326.63,-36 104.38,-36 104.38,0 326.63,0 326.63,-36"/>
<text xml:space="preserve" text-anchor="middle" x="215.5" y="-14.12" font-family="Times New Roman,serif" font-size="10.00">test_make_creates_error_with_code_and_message</text>
</g>
<!-- TEST_APP_make -->
<g id="node47" class="node">
<title>TEST_APP_make</title>
<polygon fill="lightcoral" stroke="black" points="139,-322.5 85,-322.5 85,-286.5 139,-286.5 139,-322.5"/>
<text xml:space="preserve" text-anchor="middle" x="112" y="-300.62" font-family="Times New Roman,serif" font-size="10.00">make</text>
</g>
<!-- TEST_APP_passed -->
<g id="node48" class="node">
<title>TEST_APP_passed</title>
<polygon fill="lightgray" stroke="black" points="64,-347.5 10,-347.5 10,-311.5 64,-311.5 64,-347.5"/>
<text xml:space="preserve" text-anchor="middle" x="37" y="-325.62" font-family="Times New Roman,serif" font-size="10.00">passed</text>
</g>
<!-- TEST_APP_failed -->
<g id="node49" class="node">
<title>TEST_APP_failed</title>
<polygon fill="lightgray" stroke="black" points="129,-402.5 75,-402.5 75,-366.5 129,-366.5 129,-402.5"/>
<text xml:space="preserve" text-anchor="middle" x="102" y="-380.63" font-family="Times New Roman,serif" font-size="10.00">failed</text>
</g>
<!-- TEST_APP_run_test -->
<g id="node50" class="node">
<title>TEST_APP_run_test</title>
<polygon fill="lightcoral" stroke="black" points="54,-407.5 0,-407.5 0,-371.5 54,-371.5 54,-407.5"/>
<text xml:space="preserve" text-anchor="middle" x="27" y="-385.62" font-family="Times New Roman,serif" font-size="10.00">run_test</text>
</g>
<!-- legend_full -->
<g id="node51" class="node">
<title>legend_full</title>
<polygon fill="palegreen" stroke="black" points="548.38,-651.12 434.12,-651.12 434.12,-610.12 548.38,-610.12 548.38,-651.12"/>
<text xml:space="preserve" text-anchor="middle" x="491.25" y="-633.83" font-family="Times New Roman,serif" font-size="14.00">Full Contract</text>
<text xml:space="preserve" text-anchor="middle" x="491.25" y="-617.33" font-family="Times New Roman,serif" font-size="14.00">(require + ensure)</text>
</g>
<!-- legend_partial -->
<g id="node52" class="node">
<title>legend_partial</title>
<polygon fill="khaki" stroke="black" points="558.88,-587.12 441.62,-587.12 441.62,-546.12 558.88,-546.12 558.88,-587.12"/>
<text xml:space="preserve" text-anchor="middle" x="500.25" y="-569.83" font-family="Times New Roman,serif" font-size="14.00">Partial Contract</text>
<text xml:space="preserve" text-anchor="middle" x="500.25" y="-553.33" font-family="Times New Roman,serif" font-size="14.00">(require or ensure)</text>
</g>
<!-- legend_none -->
<g id="node53" class="node">
<title>legend_none</title>
<polygon fill="lightcoral" stroke="black" points="524.62,-709.62 441.88,-709.62 441.88,-673.62 524.62,-673.62 524.62,-709.62"/>
<text xml:space="preserve" text-anchor="middle" x="483.25" y="-686.57" font-family="Times New Roman,serif" font-size="14.00">No Contract</text>
</g>
<!-- legend_attr -->
<g id="node54" class="node">
<title>legend_attr</title>
<polygon fill="lightgray" stroke="black" points="418.63,-723.12 353.88,-723.12 353.88,-682.12 418.63,-682.12 418.63,-723.12"/>
<text xml:space="preserve" text-anchor="middle" x="386.25" y="-705.83" font-family="Times New Roman,serif" font-size="14.00">Attribute</text>
<text xml:space="preserve" text-anchor="middle" x="386.25" y="-689.33" font-family="Times New Roman,serif" font-size="14.00">(n/a)</text>
</g>
<!-- legend_stats -->
<g id="node55" class="node">
<title>legend_stats</title>
<polygon fill="white" stroke="black" points="404.37,-661.12 338.12,-661.12 338.12,-554.12 410.37,-554.12 410.37,-655.12 404.37,-661.12"/>
<polyline fill="none" stroke="black" points="404.37,-661.12 404.37,-655.12"/>
<polyline fill="none" stroke="black" points="410.37,-655.12 404.37,-655.12"/>
<text xml:space="preserve" text-anchor="middle" x="374.25" y="-643.83" font-family="Times New Roman,serif" font-size="14.00">Statistics</text>
<text xml:space="preserve" text-anchor="middle" x="374.25" y="-627.33" font-family="Times New Roman,serif" font-size="14.00">Full: 6</text>
<text xml:space="preserve" text-anchor="middle" x="374.25" y="-610.83" font-family="Times New Roman,serif" font-size="14.00">Partial: 23</text>
<text xml:space="preserve" text-anchor="middle" x="374.25" y="-594.33" font-family="Times New Roman,serif" font-size="14.00">None: 4</text>
<text xml:space="preserve" text-anchor="middle" x="374.25" y="-577.83" font-family="Times New Roman,serif" font-size="14.00">Attr: 17</text>
<text xml:space="preserve" text-anchor="middle" x="374.25" y="-561.33" font-family="Times New Roman,serif" font-size="14.00">Total: 50</text>
</g>
</g>
</svg>
