<?xml version="1.0" encoding="UTF-8" standalone="no"?>
<!DOCTYPE svg PUBLIC "-//W3C//DTD SVG 1.1//EN"
 "http://www.w3.org/Graphics/SVG/1.1/DTD/svg11.dtd">
<!-- Generated by graphviz version 14.1.1 (20251213.1925)
 -->
<!-- Title: Dependencies Pages: 1 -->
<svg width="361pt" height="429pt"
 viewBox="0.00 0.00 361.00 429.00" xmlns="http://www.w3.org/2000/svg" xmlns:xlink="http://www.w3.org/1999/xlink">
<g id="graph0" class="graph" transform="scale(1 1) rotate(0) translate(4 424.5)">
<title>Dependencies</title>
<polygon fill="white" stroke="none" points="-4,4 -4,-424.5 357,-424.5 357,4 -4,4"/>
<text xml:space="preserve" text-anchor="middle" x="176.5" y="-7.2" font-family="Times New Roman,serif" font-size="14.00">simple_validation &#45; Dependencies</text>
<!-- simple_validation -->
<g id="node1" class="node">
<title>simple_validation</title>
<polygon fill="lightblue" stroke="black" points="113.5,-240.5 0,-240.5 0,-204.5 113.5,-204.5 113.5,-240.5"/>
<text xml:space="preserve" text-anchor="middle" x="56.75" y="-217.45" font-family="Times New Roman,serif" font-size="14.00">simple_validation</text>
</g>
<!-- simple_logger -->
<g id="node2" class="node">
<title>simple_logger</title>
<polygon fill="lightblue" stroke="black" points="352.25,-420.5 258.25,-420.5 258.25,-384.5 352.25,-384.5 352.25,-420.5"/>
<text xml:space="preserve" text-anchor="middle" x="305.25" y="-397.45" font-family="Times New Roman,serif" font-size="14.00">simple_logger</text>
</g>
<!-- simple_validation&#45;&gt;simple_logger -->
<g id="edge1" class="edge">
<title>simple_validation&#45;&gt;simple_logger</title>
<path fill="none" stroke="black" stroke-dasharray="5,2" d="M38,-240.75C38,-286.51 38,-402.5 38,-402.5 38,-402.5 246.27,-402.5 246.27,-402.5"/>
<polygon fill="black" stroke="black" points="246.27,-406 256.27,-402.5 246.27,-399 246.27,-406"/>
</g>
<!-- simple_mml -->
<g id="node3" class="node">
<title>simple_mml</title>
<polygon fill="lightblue" stroke="black" points="348.12,-348.5 262.38,-348.5 262.38,-312.5 348.12,-312.5 348.12,-348.5"/>
<text xml:space="preserve" text-anchor="middle" x="305.25" y="-325.45" font-family="Times New Roman,serif" font-size="14.00">simple_mml</text>
</g>
<!-- simple_validation&#45;&gt;simple_mml -->
<g id="edge2" class="edge">
<title>simple_validation&#45;&gt;simple_mml</title>
<path fill="none" stroke="black" stroke-dasharray="5,2" d="M76,-240.82C76,-271.63 76,-330.5 76,-330.5 76,-330.5 250.62,-330.5 250.62,-330.5"/>
<polygon fill="black" stroke="black" points="250.62,-334 260.62,-330.5 250.62,-327 250.62,-334"/>
</g>
<!-- simple_testing -->
<g id="node4" class="node">
<title>simple_testing</title>
<polygon fill="lightblue" stroke="black" points="353,-276.5 257.5,-276.5 257.5,-240.5 353,-240.5 353,-276.5"/>
<text xml:space="preserve" text-anchor="middle" x="305.25" y="-253.45" font-family="Times New Roman,serif" font-size="14.00">simple_testing</text>
</g>
<!-- simple_validation&#45;&gt;simple_testing -->
<g id="edge3" class="edge">
<title>simple_validation&#45;&gt;simple_testing</title>
<path fill="none" stroke="black" stroke-dasharray="5,2" d="M113.85,-231.5C177.92,-231.5 273,-231.5 273,-231.5 273,-231.5 273,-232.35 273,-232.35"/>
<polygon fill="black" stroke="black" points="269.5,-228.53 273,-238.53 276.5,-228.53 269.5,-228.53"/>
</g>
<!-- base -->
<g id="node5" class="node">
<title>base</title>
<polygon fill="lightgray" stroke="black" points="332.25,-204.5 278.25,-204.5 278.25,-168.5 332.25,-168.5 332.25,-204.5"/>
<text xml:space="preserve" text-anchor="middle" x="305.25" y="-181.45" font-family="Times New Roman,serif" font-size="14.00">base</text>
</g>
<!-- simple_validation&#45;&gt;base -->
<g id="edge4" class="edge">
<title>simple_validation&#45;&gt;base</title>
<path fill="none" stroke="black" stroke-dasharray="5,2" d="M113.7,-222.5C187,-222.5 305,-222.5 305,-222.5 305,-222.5 305,-216.44 305,-216.44"/>
<polygon fill="black" stroke="black" points="308.5,-216.44 305,-206.44 301.5,-216.44 308.5,-216.44"/>
</g>
<!-- gobo_regexp -->
<g id="node6" class="node">
<title>gobo_regexp</title>
<polygon fill="lightgray" stroke="black" points="348.5,-132.5 262,-132.5 262,-96.5 348.5,-96.5 348.5,-132.5"/>
<text xml:space="preserve" text-anchor="middle" x="305.25" y="-109.45" font-family="Times New Roman,serif" font-size="14.00">gobo_regexp</text>
</g>
<!-- simple_validation&#45;&gt;gobo_regexp -->
<g id="edge5" class="edge">
<title>simple_validation&#45;&gt;gobo_regexp</title>
<path fill="none" stroke="black" stroke-dasharray="5,2" d="M113.92,-213.5C176.18,-213.5 267,-213.5 267,-213.5 267,-213.5 267,-144.17 267,-144.17"/>
<polygon fill="black" stroke="black" points="270.5,-144.17 267,-134.17 263.5,-144.17 270.5,-144.17"/>
</g>
<!-- testing -->
<g id="node7" class="node">
<title>testing</title>
<polygon fill="lightgray" stroke="black" points="332.25,-60.5 278.25,-60.5 278.25,-24.5 332.25,-24.5 332.25,-60.5"/>
<text xml:space="preserve" text-anchor="middle" x="305.25" y="-37.45" font-family="Times New Roman,serif" font-size="14.00">testing</text>
</g>
<!-- simple_validation&#45;&gt;testing -->
<g id="edge6" class="edge">
<title>simple_validation&#45;&gt;testing</title>
<path fill="none" stroke="black" stroke-dasharray="5,2" d="M57,-204.25C57,-158.49 57,-42.5 57,-42.5 57,-42.5 266.7,-42.5 266.7,-42.5"/>
<polygon fill="black" stroke="black" points="266.7,-46 276.7,-42.5 266.7,-39 266.7,-46"/>
</g>
</g>
</svg>
